<svg width="27" height="34" viewBox="0 0 27 34" fill="none" xmlns="http://www.w3.org/2000/svg">
<path d="M26.0488 18.3978C23.2862 11.4138 13.0179 11.3329 16.9122 6.10352e-05C9.47314 3.24958 3.58178 11.6078 9.40657 22.6497C1.16866 19.287 4.78002 10.8641 4.78002 10.8641C4.78002 10.8641 0.286621 13.5478 0.286621 21.6635C0.919026 30.7169 8.7908 33.4976 11.62 33.8532C15.664 34.3544 20.041 33.6269 23.1863 30.83C26.6479 27.7099 27.9127 22.7305 26.0488 18.3978ZM10.6048 26.5297C13.0013 25.9638 14.2328 24.2825 14.5657 22.7952C15.1149 20.4833 12.968 18.22 14.4159 14.5663C14.9651 17.5895 19.8579 19.481 19.8579 22.779C19.991 26.8692 15.4311 30.3774 10.6048 26.5297Z" fill="url(#paint0_linear_188_11684)"/>
<defs>
<linearGradient id="paint0_linear_188_11684" x1="13.5973" y1="-22.9999" x2="13.5973" y2="34.0001" gradientUnits="userSpaceOnUse">
<stop stop-color="#3C1FA8"/>
<stop offset="1" stop-color="#AD9CED"/>
</linearGradient>
</defs>
</svg>
