<svg width="32" height="31" viewBox="0 0 32 31" fill="none" xmlns="http://www.w3.org/2000/svg">
<path fill-rule="evenodd" clip-rule="evenodd" d="M6.80616 2.43141C5.20509 4.01094 3.58227 6.19404 2.58311 7.68556C2.46822 7.85706 2.34683 8.02736 2.19869 8.23475L2.18641 8.25193L1.72652 8.91259C1.42312 9.36984 0.965119 10.1115 0.736627 11.0397C0.475207 12.1017 0.547326 13.2594 1.08981 14.3787C1.57727 15.3844 2.35002 16.1632 3.1506 16.7901C4.72337 18.0216 6.23806 19.2323 7.68954 20.3924C11.0234 23.0571 14.0238 25.4552 16.6284 27.2281C18.5254 28.5194 20.3941 29.6105 22.212 30.2775C24.0443 30.9499 26.0274 31.2655 28.0215 30.7275C28.323 30.6461 28.6201 30.5464 28.9122 30.4279C29.7582 30.0849 30.759 29.4542 31.3744 28.2795C31.994 27.0966 31.9401 25.9024 31.7603 25.0452C31.4488 23.56 30.4961 21.974 29.7335 20.7191C29.5346 20.3919 29.3271 20.0547 29.1129 19.7065C27.4516 17.0068 25.3845 13.6478 23.8173 9.20023C23.805 9.16547 23.7902 9.12223 23.7728 9.0716C23.617 8.61875 23.258 7.57466 22.7518 6.71628C22.4782 6.25228 21.9622 5.48256 21.1104 4.94675C20.0885 4.30387 18.7676 4.12834 17.5074 4.73031C16.6523 5.08898 16.1765 5.0955 15.9845 5.07315C15.8276 5.05489 15.7699 5.01167 15.7141 4.95798C15.625 4.87213 15.4921 4.68951 15.3727 4.36964C15.2541 4.0522 15.1914 3.71101 15.1747 3.44598L15.1323 2.77553L14.8284 2.18133C14.365 1.27512 13.5457 0.440806 12.3492 0.125281C11.2791 -0.156938 10.3333 0.0927232 9.73367 0.333244C8.58136 0.795434 7.55205 1.69555 6.80616 2.43141ZM18.7499 7.60693C19.8225 7.03913 20.5322 9.07659 20.8945 10.1167C20.9141 10.1729 20.9327 10.2263 20.9503 10.2761C22.6379 15.0655 24.8812 18.7066 26.5427 21.4033C28.6289 24.7895 29.7976 26.6865 27.7967 27.4977C27.6172 27.5705 27.4349 27.6317 27.2498 27.6817C23.169 28.7827 17.7028 24.4134 9.67455 17.9961C8.20307 16.8199 6.64553 15.5749 4.99466 14.2821C2.86185 12.612 3.64605 11.5142 4.65512 10.1016C4.79896 9.90027 4.94737 9.69251 5.09255 9.47579C6.09259 7.98295 7.69656 5.84975 9.14755 4.48192C9.42196 4.22324 9.69088 3.99194 9.94923 3.79752C10.9113 3.07349 11.7265 2.86091 12.1305 3.65078C12.27 5.86037 13.7893 9.74502 18.7499 7.60693Z" fill="url(#paint0_linear_188_11732)"/>
<path d="M3.92627 10.1539C14.2788 16.2065 16.496 25.1812 27.0339 29" stroke="url(#paint1_linear_188_11732)" stroke-width="1.53846"/>
<defs>
<linearGradient id="paint0_linear_188_11732" x1="15.3378" y1="-37.0373" x2="15.3378" y2="29.5419" gradientUnits="userSpaceOnUse">
<stop stop-color="#3C1FA8"/>
<stop offset="1" stop-color="#AD9CED"/>
</linearGradient>
<linearGradient id="paint1_linear_188_11732" x1="14.8171" y1="-12.3626" x2="14.8171" y2="28.1136" gradientUnits="userSpaceOnUse">
<stop stop-color="#3C1FA8"/>
<stop offset="1" stop-color="#AD9CED"/>
</linearGradient>
</defs>
</svg>
